<svg xmlns="http://www.w3.org/2000/svg" viewBox="0 0 240 60" fill="none" role="img" aria-label="Castford">
<title>Castford</title>
<g transform="translate(0, 5)">
<path d="M25 2.5 L45 13.5 L45 36.5 L25 47.5 L5 36.5 L5 13.5 Z" stroke="currentColor" stroke-width="0.4" opacity="0.08"/>
<path d="M25 5 L42.5 15 L42.5 35 L25 45 L7.5 35 L7.5 15 Z" stroke="currentColor" stroke-width="0.6" opacity="0.18"/>
<path d="M25 8 L40 16.5 L40 33.5 L25 42 L10 33.5 L10 16.5 Z" stroke="currentColor" stroke-width="1.3"/>
<path d="M18 23.5 L25 19.5 L32 23.5 L32 28.5 L25 32.5 L18 28.5 Z" fill="currentColor" opacity="0.06"/>
<path d="M18 23.5 L25 19.5 L32 23.5 L32 28.5 L25 32.5 L18 28.5 Z" stroke="currentColor" stroke-width="0.8"/>
<circle cx="25" cy="26" r="1.5" fill="#C4884A"/>
</g>
<text x="60" y="37" font-family="Instrument Sans, -apple-system, sans-serif" font-size="24" font-weight="600" letter-spacing="-0.5" fill="currentColor">Castford</text>
</svg>
